<svg width="16" height="16" viewBox="0 0 16 16" fill="none" xmlns="http://www.w3.org/2000/svg">
<path d="M15.9584 6.13752C15.8536 5.81354 15.5663 5.58343 15.2263 5.55279L10.6082 5.13347L8.78215 0.859312C8.6475 0.546072 8.34085 0.343307 8.00014 0.343307C7.65944 0.343307 7.35279 0.546071 7.21814 0.860044L5.39204 5.13347L0.773272 5.55279C0.433908 5.58416 0.14728 5.81354 0.0419302 6.13752C-0.0634192 6.46151 0.0338734 6.81686 0.290594 7.04087L3.78128 10.1022L2.75196 14.6364C2.67664 14.9698 2.80604 15.3144 3.08266 15.5144C3.23134 15.6218 3.4053 15.6765 3.58072 15.6765C3.73197 15.6765 3.88199 15.6357 4.01664 15.5551L8.00014 13.1743L11.9822 15.5551C12.2736 15.7304 12.6409 15.7144 12.9169 15.5144C13.1936 15.3138 13.3229 14.969 13.2476 14.6364L12.2183 10.1022L15.709 7.04148C15.9657 6.81686 16.0637 6.46212 15.9584 6.13752Z" fill="#272727"/>
</svg>
